
      <svg data-logo="logo" xmlns="http://www.w3.org/2000/svg" viewBox="0 0 156 43">
        <g id="logogram" transform="translate(0, 1) rotate(0) "><path d="M20.8181 0.299988C18.1917 0.299988 15.5909 0.817359 13.1644 1.82239C10.7379 2.82753 8.5332 4.30067 6.67594 6.15782C4.8188 8.01507 3.34566 10.2198 2.34052 12.6463C1.33549 15.0728 0.818115 17.6736 0.818115 20.3C0.818115 22.9264 1.33549 25.5272 2.34052 27.9537C3.34566 30.3802 4.8188 32.5849 6.67594 34.4422C8.5332 36.2993 10.7379 37.7724 13.1644 38.7776C15.5909 39.7826 18.1917 40.3 20.8181 40.3V30.3C19.5049 30.3 18.2045 30.0414 16.9913 29.5387C15.778 29.0362 14.6756 28.2996 13.747 27.3711C12.8185 26.4425 12.0819 25.3401 11.5794 24.1268C11.0767 22.9136 10.8181 21.6132 10.8181 20.3C10.8181 18.9867 11.0767 17.6864 11.5794 16.4731C12.0819 15.2599 12.8185 14.1575 13.747 13.2289C14.6756 12.3003 15.778 11.5638 16.9913 11.0612C18.2045 10.5586 19.5049 10.3 20.8181 10.3V0.299988Z" fill="#FFFFFF"/><path d="M20.8181 26.9666C24.5001 26.9666 27.4847 23.9819 27.4847 20.3C27.4847 16.618 24.5001 13.6333 20.8181 13.6333C17.1362 13.6333 14.1515 16.618 14.1515 20.3C14.1515 23.9819 17.1362 26.9666 20.8181 26.9666Z" fill="#FFFFFF"/><path d="M0.818115 20.3C0.818115 22.9264 1.33549 25.5272 2.34052 27.9537C3.34566 30.3802 4.8188 32.5849 6.67594 34.4422C8.5332 36.2993 10.7379 37.7724 13.1644 38.7776C15.5909 39.7826 18.1917 40.3 20.8181 40.3C23.4445 40.3 26.0453 39.7826 28.4718 38.7776C30.8983 37.7724 33.103 36.2993 34.9603 34.4422C36.8174 32.5849 38.2906 30.3802 39.2957 27.9537C40.3007 25.5272 40.8181 22.9264 40.8181 20.3H30.8181C30.8181 21.6132 30.5595 22.9136 30.0569 24.1268C29.5543 25.3401 28.8178 26.4425 27.8892 27.3711C26.9606 28.2996 25.8582 29.0362 24.645 29.5387C23.4317 30.0414 22.1314 30.3 20.8181 30.3C19.5049 30.3 18.2045 30.0414 16.9913 29.5387C15.778 29.0362 14.6756 28.2996 13.747 27.3711C12.8185 26.4425 12.0819 25.3401 11.5794 24.1268C11.0767 22.9136 10.8181 21.6132 10.8181 20.3H0.818115Z" fill="#FFFFFF"/><path d="M27.4849 20.3C27.4849 18.5319 26.7825 16.8362 25.5323 15.586C24.282 14.3357 22.5863 13.6333 20.8182 13.6333C19.0501 13.6333 17.3545 14.3357 16.1042 15.586C14.8539 16.8362 14.1515 18.5319 14.1515 20.3H20.8182H27.4849Z" fill="#FFFFFF"/></g>
        <g id="logotype" transform="translate(47, 8)"><path fill="#ffffff" d="M12.67 26L8.45 26L8.45 0.80L12.67 0.80L12.67 12.49L22.73 0.80L27.91 0.80L17.08 13.15L28.65 26L23.29 26L12.67 14.24L12.67 26ZM38.04 26.52L38.04 26.52Q35.21 26.52 33.09 25.25Q30.97 23.97 29.81 21.72Q28.65 19.47 28.65 16.55L28.65 16.55Q28.65 13.57 29.84 11.33Q31.03 9.09 33.14 7.83Q35.26 6.57 38.04 6.57L38.04 6.57Q40.90 6.57 43.01 7.85Q45.13 9.13 46.30 11.38Q47.48 13.63 47.48 16.55L47.48 16.55Q47.48 19.49 46.29 21.74Q45.11 23.99 43.00 25.26Q40.88 26.52 38.04 26.52ZM38.04 22.57L38.04 22.57Q40.56 22.57 41.79 20.89Q43.01 19.21 43.01 16.55L43.01 16.55Q43.01 13.80 41.77 12.17Q40.53 10.53 38.04 10.53L38.04 10.53Q36.35 10.53 35.25 11.29Q34.16 12.05 33.63 13.41Q33.11 14.76 33.11 16.55L33.11 16.55Q33.11 19.30 34.36 20.93Q35.61 22.57 38.04 22.57ZM78.24 26L74.02 26L74.02 14.52Q74.02 12.58 73.06 11.48Q72.10 10.39 70.45 10.39L70.45 10.39Q69.44 10.39 68.63 10.85Q67.83 11.32 67.36 12.22Q66.88 13.12 66.88 14.36L66.88 14.36L65.01 13.26Q64.99 11.30 65.89 9.80Q66.80 8.31 68.34 7.47Q69.88 6.63 71.77 6.63L71.77 6.63Q74.90 6.63 76.57 8.51Q78.24 10.39 78.24 13.45L78.24 13.45L78.24 26ZM55.54 26L51.29 26L51.29 7.10L55.02 7.10L55.02 12.96L55.54 12.96L55.54 26ZM66.88 26L62.68 26L62.68 14.57Q62.68 12.59 61.72 11.49Q60.76 10.39 59.10 10.39L59.10 10.39Q57.49 10.39 56.51 11.49Q55.54 12.59 55.54 14.36L55.54 14.36L53.65 13.10Q53.65 11.26 54.56 9.79Q55.47 8.32 57.02 7.48Q58.57 6.63 60.50 6.63L60.50 6.63Q62.61 6.63 64.04 7.53Q65.47 8.43 66.17 9.98Q66.88 11.53 66.88 13.47L66.88 13.47L66.88 26ZM88.08 26.52L88.08 26.52Q86.03 26.52 84.61 25.75Q83.19 24.97 82.47 23.67Q81.74 22.38 81.74 20.82L81.74 20.82Q81.74 19.45 82.20 18.36Q82.65 17.27 83.59 16.47Q84.54 15.67 86.05 15.17L86.05 15.17Q87.18 14.80 88.71 14.50Q90.25 14.20 92.04 13.95Q93.83 13.70 95.79 13.40L95.79 13.40L94.29 14.26Q94.31 12.30 93.41 11.37Q92.52 10.44 90.40 10.44L90.40 10.44Q89.13 10.44 87.94 11.04Q86.75 11.63 86.27 13.08L86.27 13.08L82.42 11.88Q83.12 9.48 85.09 8.03Q87.06 6.57 90.40 6.57L90.40 6.57Q92.92 6.57 94.84 7.40Q96.76 8.22 97.68 10.09L97.68 10.09Q98.19 11.09 98.30 12.13Q98.40 13.17 98.40 14.40L98.40 14.40L98.40 26L94.71 26L94.71 21.91L95.32 22.57Q94.04 24.62 92.34 25.57Q90.63 26.52 88.08 26.52ZM88.92 23.16L88.92 23.16Q90.35 23.16 91.37 22.66Q92.38 22.15 92.98 21.41Q93.59 20.68 93.80 20.03L93.80 20.03Q94.13 19.23 94.17 18.19Q94.22 17.14 94.22 16.50L94.22 16.50L95.51 16.88Q93.61 17.18 92.24 17.41Q90.88 17.63 89.90 17.84Q88.92 18.04 88.16 18.28L88.16 18.28Q87.43 18.54 86.92 18.89Q86.41 19.24 86.14 19.70Q85.87 20.16 85.87 20.77L85.87 20.77Q85.87 21.47 86.22 22.00Q86.57 22.54 87.24 22.85Q87.92 23.16 88.92 23.16ZM107.52 26L103.30 26L103.30 0.27L107.52 0.27L107.52 26Z"/></g>
        
      </svg>
    